<svg xmlns="http://www.w3.org/2000/svg" version="1.1" xmlns:xlink="http://www.w3.org/1999/xlink" xmlns:svgjs="http://svgjs.dev/svgjs" width="1500" height="935" viewBox="0 0 1500 935"><g transform="matrix(1,0,0,1,-0.9090909090909918,0.3785425101214628)"><svg viewBox="0 0 396 247" data-background-color="#000000" preserveAspectRatio="xMidYMid meet" height="935" width="1500" xmlns="http://www.w3.org/2000/svg" xmlns:xlink="http://www.w3.org/1999/xlink"><g id="tight-bounds" transform="matrix(1,0,0,1,0.2400000000000091,-0.09999999999999432)"><svg viewBox="0 0 395.52 247.2" height="247.2" width="395.52"><g><svg></svg></g><g><svg viewBox="0 0 395.52 247.2" height="247.2" width="395.52"><mask id="c382e1b1-9385-478b-b344-6fd404d23778"><rect width="640" height="400" fill="white"></rect><g transform="matrix(1,0,0,1,39.55199999999999,101.7137260806808)"><svg viewBox="0 0 316.416 43.77254783863839" height="43.77254783863839" width="316.416"><g><svg viewBox="0 0 316.416 43.77254783863839" height="43.77254783863839" width="316.416"><g><svg viewBox="0 0 316.416 43.77254783863839" height="43.77254783863839" width="316.416"><g><svg viewBox="0 0 316.416 43.77254783863839" height="43.77254783863839" width="316.416"><g id="SvgjsG1999"><svg viewBox="0 0 316.416 43.77254783863839" height="43.77254783863839" width="316.416" id="SvgjsSvg1998"><g><svg viewBox="0 0 316.416 43.77254783863839" height="43.77254783863839" width="316.416"><g transform="matrix(1,0,0,1,0,0)"><svg width="316.416" viewBox="0.8799999999999999 -37.01 273.64 38.72" height="43.77254783863839" data-palette-color="#f2f0ea"><path d="M32.79-10.74L32.79-10.74Q32.79-8.47 32.21-6.74 31.64-5 30.6-3.74 29.57-2.47 28.15-1.61 26.73-0.76 25.06-0.24 23.39 0.27 21.52 0.49 19.65 0.71 17.72 0.71L17.72 0.71Q15.19 0.71 13.04 0.33 10.89-0.05 9-0.87 7.1-1.68 5.36-2.98 3.61-4.27 1.88-6.13L1.88-6.13 6.86-11.18Q7.54-9.5 8.74-8.07 9.94-6.64 11.36-5.62 12.79-4.59 14.33-4 15.87-3.42 17.24-3.42L17.24-3.42Q18.85-3.42 20.26-3.65 21.68-3.88 22.73-4.42 23.78-4.96 24.38-5.85 24.98-6.74 24.98-8.08L24.98-8.08Q24.98-9.11 24.51-9.84 24.05-10.57 23.3-11.1 22.56-11.62 21.61-11.99 20.65-12.35 19.67-12.61 18.68-12.87 17.72-13.07 16.77-13.28 16.04-13.5L16.04-13.5Q14.6-13.92 13.04-14.39 11.47-14.87 9.96-15.48 8.45-16.09 7.09-16.88 5.74-17.68 4.71-18.76 3.69-19.85 3.08-21.28 2.47-22.71 2.47-24.56L2.47-24.56Q2.47-26.78 3.02-28.5 3.56-30.22 4.57-31.49 5.57-32.76 6.93-33.63 8.3-34.5 9.94-35.02 11.57-35.55 13.42-35.78 15.26-36.01 17.19-36.01L17.19-36.01Q19.82-36.01 21.98-35.52 24.15-35.03 25.98-34.13 27.81-33.23 29.33-31.97 30.86-30.71 32.2-29.17L32.2-29.17 27.22-24.12Q26.64-25.88 25.6-27.29 24.56-28.71 23.29-29.72 22.02-30.74 20.63-31.29 19.24-31.84 17.94-31.84L17.94-31.84Q16.26-31.84 14.84-31.6 13.43-31.37 12.41-30.85 11.4-30.32 10.84-29.43 10.28-28.54 10.28-27.22L10.28-27.22Q10.28-26.17 10.69-25.44 11.11-24.71 11.8-24.19 12.5-23.68 13.38-23.35 14.26-23.02 15.2-22.78 16.14-22.53 17.05-22.35 17.97-22.17 18.73-21.95L18.73-21.95Q20.19-21.53 21.8-21.07 23.41-20.61 24.98-19.98 26.54-19.36 27.95-18.55 29.37-17.75 30.44-16.64 31.52-15.53 32.15-14.07 32.79-12.62 32.79-10.74ZM48.51-15.33L48.51 0 38.82 0 38.82-35.16 48.51-35.16 48.51-19.8 61.35-19.8 61.35-35.16 71.04-35.16 71.04 0 61.35 0 61.35-15.33 48.51-15.33ZM115.69-17.63L115.69-17.63Q115.69-13.38 114.23-9.97 112.76-6.57 110.18-4.2 107.59-1.83 104.05-0.56 100.51 0.71 96.38 0.71L96.38 0.71Q92.26 0.71 88.72-0.56 85.18-1.83 82.59-4.2 80-6.57 78.54-9.97 77.07-13.38 77.07-17.63L77.07-17.63Q77.07-21.95 78.52-25.35 79.98-28.76 82.55-31.12 85.13-33.47 88.67-34.73 92.21-35.99 96.38-35.99L96.38-35.99Q100.56-35.99 104.1-34.73 107.64-33.47 110.21-31.12 112.79-28.76 114.24-25.35 115.69-21.95 115.69-17.63ZM105.83-17.63L105.83-17.63Q105.83-19.24 105.68-20.92 105.54-22.61 105.15-24.19 104.76-25.78 104.08-27.17 103.41-28.56 102.36-29.6 101.31-30.64 99.84-31.24 98.36-31.84 96.38-31.84L96.38-31.84Q94.38-31.84 92.89-31.24 91.4-30.64 90.35-29.61 89.3-28.59 88.64-27.2 87.98-25.81 87.6-24.23 87.23-22.66 87.08-20.96 86.93-19.26 86.93-17.63L86.93-17.63Q86.93-16.02 87.08-14.33 87.23-12.65 87.62-11.07 88.01-9.5 88.68-8.11 89.35-6.71 90.4-5.68 91.45-4.64 92.93-4.03 94.4-3.42 96.38-3.42L96.38-3.42Q98.31-3.42 99.75-4.04 101.19-4.66 102.24-5.73 103.29-6.79 103.99-8.19 104.68-9.59 105.09-11.17 105.49-12.74 105.66-14.4 105.83-16.06 105.83-17.63ZM131.41-13.13L131.41 0 121.72 0 121.72-35.16 140.72-35.16Q143.18-35.16 145.44-34.5 147.7-33.84 149.43-32.51 151.16-31.18 152.2-29.16 153.24-27.15 153.24-24.44L153.24-24.44Q153.24-22.73 152.75-21.23 152.26-19.73 151.4-18.48 150.53-17.24 149.36-16.24 148.19-15.23 146.79-14.55 145.4-13.87 143.85-13.5 142.3-13.13 140.72-13.13L140.72-13.13 131.41-13.13ZM143.43-24.44L143.43-24.44Q143.43-27.83 141.7-29.77 139.98-31.71 136.52-31.71L136.52-31.71 131.41-31.71 131.41-16.46 136.52-16.46Q138.37-16.46 139.68-17.05 140.98-17.65 141.81-18.73 142.64-19.8 143.03-21.25 143.43-22.71 143.43-24.44ZM174.55-30.66L174.55 0 164.86 0 164.86-30.66 155.29-30.66 155.29-35.16 184.12-35.16 184.12-30.66 174.55-30.66ZM198.77-35.16L198.77 0 189.07 0 189.07-35.16 198.77-35.16ZM240.81-17.63L240.81-17.63Q240.81-15.06 240.12-12.76 239.44-10.45 238.21-8.5 236.97-6.54 235.26-4.97 233.55-3.39 231.49-2.29 229.43-1.2 227.07-0.6 224.72 0 222.23 0L222.23 0 206.72 0 206.72-35.16 222.23-35.16Q224.72-35.16 227.06-34.57 229.4-33.98 231.47-32.9 233.53-31.81 235.25-30.25 236.97-28.69 238.21-26.75 239.44-24.8 240.12-22.5 240.81-20.19 240.81-17.63ZM230.97-17.63L230.97-17.63Q230.97-20.48 230.27-23.06 229.57-25.63 228.11-27.59 226.65-29.54 224.39-30.69 222.13-31.84 218.98-31.84L218.98-31.84 216.42-31.84 216.42-3.42 218.98-3.42Q222.08-3.42 224.34-4.58 226.6-5.74 228.07-7.7 229.55-9.67 230.26-12.23 230.97-14.79 230.97-17.63ZM266.68-35.16L273.52-35.16 262.14-14.77 262.14 0 252.45 0 252.45-14.23 240.95-35.16 250.84-35.16 258.48-17.48 266.68-35.16Z" opacity="1" transform="matrix(1,0,0,1,0,0)" fill="black" class="wordmark-text-0" id="SvgjsPath1997" stroke-width="1" stroke="black" stroke-linejoin="round"></path></svg></g></svg></g></svg></g></svg></g><g></g></svg></g></svg></g></svg></g></mask><g transform="matrix(1,0,0,1,39.55199999999999,101.7137260806808)"><svg viewBox="0 0 316.416 43.77254783863839" height="43.77254783863839" width="316.416"><g><svg viewBox="0 0 316.416 43.77254783863839" height="43.77254783863839" width="316.416"><g><svg viewBox="0 0 316.416 43.77254783863839" height="43.77254783863839" width="316.416"><g><svg viewBox="0 0 316.416 43.77254783863839" height="43.77254783863839" width="316.416"><g id="textblocktransform"><svg viewBox="0 0 316.416 43.77254783863839" height="43.77254783863839" width="316.416" id="textblock"><g><svg viewBox="0 0 316.416 43.77254783863839" height="43.77254783863839" width="316.416"><g transform="matrix(1,0,0,1,0,0)"><svg width="316.416" viewBox="0.8799999999999999 -37.01 273.64 38.72" height="43.77254783863839" data-palette-color="#f2f0ea"><path d="M32.79-10.74L32.79-10.74Q32.79-8.47 32.21-6.74 31.64-5 30.6-3.74 29.57-2.47 28.15-1.61 26.73-0.76 25.06-0.24 23.39 0.27 21.52 0.49 19.65 0.71 17.72 0.71L17.72 0.71Q15.19 0.71 13.04 0.33 10.89-0.05 9-0.87 7.1-1.68 5.36-2.98 3.61-4.27 1.88-6.13L1.88-6.13 6.86-11.18Q7.54-9.5 8.74-8.07 9.94-6.64 11.36-5.62 12.79-4.59 14.33-4 15.87-3.42 17.24-3.42L17.24-3.42Q18.85-3.42 20.26-3.65 21.68-3.88 22.73-4.42 23.78-4.96 24.38-5.85 24.98-6.74 24.98-8.08L24.98-8.08Q24.98-9.11 24.51-9.84 24.05-10.57 23.3-11.1 22.56-11.62 21.61-11.99 20.65-12.35 19.67-12.61 18.68-12.87 17.72-13.07 16.77-13.28 16.04-13.5L16.04-13.5Q14.6-13.92 13.04-14.39 11.47-14.87 9.96-15.48 8.45-16.09 7.09-16.88 5.74-17.68 4.71-18.76 3.69-19.85 3.08-21.28 2.47-22.71 2.47-24.56L2.47-24.56Q2.47-26.78 3.02-28.5 3.56-30.22 4.57-31.49 5.57-32.76 6.93-33.63 8.3-34.5 9.94-35.02 11.57-35.55 13.42-35.78 15.26-36.01 17.19-36.01L17.19-36.01Q19.82-36.01 21.98-35.52 24.15-35.03 25.98-34.13 27.81-33.23 29.33-31.97 30.86-30.71 32.2-29.17L32.2-29.17 27.22-24.12Q26.64-25.88 25.6-27.29 24.56-28.71 23.29-29.72 22.02-30.74 20.63-31.29 19.24-31.84 17.94-31.84L17.94-31.84Q16.26-31.84 14.84-31.6 13.43-31.37 12.41-30.85 11.4-30.32 10.84-29.43 10.28-28.54 10.28-27.22L10.28-27.22Q10.28-26.17 10.69-25.44 11.11-24.71 11.8-24.19 12.5-23.68 13.38-23.35 14.26-23.02 15.2-22.78 16.14-22.53 17.05-22.35 17.97-22.17 18.73-21.95L18.73-21.95Q20.19-21.53 21.8-21.07 23.41-20.61 24.98-19.98 26.54-19.36 27.95-18.55 29.37-17.75 30.44-16.64 31.52-15.53 32.15-14.07 32.79-12.62 32.79-10.74ZM48.51-15.33L48.51 0 38.82 0 38.82-35.16 48.51-35.16 48.51-19.8 61.35-19.8 61.35-35.16 71.04-35.16 71.04 0 61.35 0 61.35-15.33 48.51-15.33ZM115.69-17.63L115.69-17.63Q115.69-13.38 114.23-9.97 112.76-6.57 110.18-4.2 107.59-1.83 104.05-0.56 100.51 0.71 96.38 0.71L96.38 0.71Q92.26 0.71 88.72-0.56 85.18-1.83 82.59-4.2 80-6.57 78.54-9.97 77.07-13.38 77.07-17.63L77.07-17.63Q77.07-21.95 78.52-25.35 79.98-28.76 82.55-31.12 85.13-33.47 88.67-34.73 92.21-35.99 96.38-35.99L96.38-35.99Q100.56-35.99 104.1-34.73 107.64-33.47 110.21-31.12 112.79-28.76 114.24-25.35 115.69-21.95 115.69-17.63ZM105.83-17.63L105.83-17.63Q105.83-19.24 105.68-20.92 105.54-22.61 105.15-24.19 104.76-25.78 104.08-27.17 103.41-28.56 102.36-29.6 101.31-30.64 99.84-31.24 98.36-31.84 96.38-31.84L96.38-31.84Q94.38-31.84 92.89-31.24 91.4-30.64 90.35-29.61 89.3-28.59 88.64-27.2 87.98-25.81 87.6-24.23 87.23-22.66 87.08-20.96 86.93-19.26 86.93-17.63L86.93-17.63Q86.93-16.02 87.08-14.33 87.23-12.65 87.62-11.07 88.01-9.5 88.68-8.11 89.35-6.71 90.4-5.68 91.45-4.64 92.93-4.03 94.4-3.42 96.38-3.42L96.38-3.42Q98.31-3.42 99.75-4.04 101.19-4.66 102.24-5.73 103.29-6.79 103.99-8.19 104.68-9.59 105.09-11.17 105.49-12.74 105.66-14.4 105.83-16.06 105.83-17.63ZM131.41-13.13L131.41 0 121.72 0 121.72-35.16 140.72-35.16Q143.18-35.16 145.44-34.5 147.7-33.84 149.43-32.51 151.16-31.18 152.2-29.16 153.24-27.15 153.24-24.44L153.24-24.44Q153.24-22.73 152.75-21.23 152.26-19.73 151.4-18.48 150.53-17.24 149.36-16.24 148.19-15.23 146.79-14.55 145.4-13.87 143.85-13.5 142.3-13.13 140.72-13.13L140.72-13.13 131.41-13.13ZM143.43-24.44L143.43-24.44Q143.43-27.83 141.7-29.77 139.98-31.71 136.52-31.71L136.52-31.71 131.41-31.71 131.41-16.46 136.52-16.46Q138.37-16.46 139.68-17.05 140.98-17.65 141.81-18.73 142.64-19.8 143.03-21.25 143.43-22.71 143.43-24.44ZM174.55-30.66L174.55 0 164.86 0 164.86-30.66 155.29-30.66 155.29-35.16 184.12-35.16 184.12-30.66 174.55-30.66ZM198.77-35.16L198.77 0 189.07 0 189.07-35.16 198.77-35.16ZM240.81-17.63L240.81-17.63Q240.81-15.06 240.12-12.76 239.44-10.45 238.21-8.5 236.97-6.54 235.26-4.97 233.55-3.39 231.49-2.29 229.43-1.2 227.07-0.6 224.72 0 222.23 0L222.23 0 206.72 0 206.72-35.16 222.23-35.16Q224.72-35.16 227.06-34.57 229.4-33.98 231.47-32.9 233.53-31.81 235.25-30.25 236.97-28.69 238.21-26.75 239.44-24.8 240.12-22.5 240.81-20.19 240.81-17.63ZM230.97-17.63L230.97-17.63Q230.97-20.48 230.27-23.06 229.57-25.63 228.11-27.59 226.65-29.54 224.39-30.69 222.13-31.84 218.98-31.84L218.98-31.84 216.42-31.84 216.42-3.42 218.98-3.42Q222.08-3.42 224.34-4.58 226.6-5.74 228.07-7.7 229.55-9.67 230.26-12.23 230.97-14.79 230.97-17.63ZM266.68-35.16L273.52-35.16 262.14-14.77 262.14 0 252.45 0 252.45-14.23 240.95-35.16 250.84-35.16 258.48-17.48 266.68-35.16Z" opacity="1" transform="matrix(1,0,0,1,0,0)" fill="#f2f0ea" class="wordmark-text-0" data-fill-palette-color="primary" id="text-0"></path></svg></g></svg></g></svg></g></svg></g><g></g></svg></g></svg></g></svg></g><g mask="url(#c382e1b1-9385-478b-b344-6fd404d23778)"><g transform="matrix(2.7214206437291897, 0, 0, 2.7214206437291897, 105.85592739920546, 1)"><svg xmlns="http://www.w3.org/2000/svg" xmlns:xlink="http://www.w3.org/1999/xlink" version="1.1" x="0" y="0" viewBox="16.22937625884344 4.9000000000000075 67.54124748231311 90.1" enable-background="new 0 0 100 100" xml:space="preserve" height="90.1" width="67.54124748231311" class="icon-none" data-fill-palette-color="accent" id="none"><path d="M63 50.6l20.3 6.3c0.8 0.2 0.5 1.4-0.3 1.3l-21-3.1c-0.6-0.1-1 0.7-0.5 1.1L77 70.7c0.6 0.5-0.1 1.5-0.8 1L58.6 59.8c-0.5-0.4-1.2 0.2-1 0.8l7.7 19.8c0.3 0.7-0.8 1.2-1.2 0.6L53.5 62.5c-0.3-0.5-1.2-0.4-1.2 0.3l-1.6 31.6c-0.1 0.8-1.2 0.8-1.3 0l-1.6-31.6c0-0.6-0.9-0.8-1.2-0.3L35.8 80.9c-0.4 0.7-1.5 0.2-1.2-0.6l7.7-19.8c0.2-0.6-0.4-1.1-1-0.8L23.8 71.7c-0.7 0.4-1.4-0.5-0.8-1l15.5-14.5c0.5-0.4 0.1-1.2-0.5-1.1l-21 3.1c-0.8 0.1-1-1-0.3-1.3L37 50.6c0.6-0.2 0.6-1 0-1.2l-20.3-6.3c-0.8-0.2-0.5-1.4 0.3-1.3l21 3.1c0.6 0.1 1-0.7 0.5-1.1L23 29.3c-0.6-0.5 0.1-1.5 0.8-1l17.6 11.9c0.5 0.4 1.2-0.2 1-0.8l-7.7-19.8c-0.3-0.7 0.8-1.2 1.2-0.6l10.7 18.4c0.3 0.5 1.2 0.4 1.2-0.3l1.6-31.6c0.1-0.8 1.2-0.8 1.3 0l1.6 31.6c0 0.6 0.9 0.8 1.2 0.3l10.7-18.4c0.4-0.7 1.5-0.2 1.2 0.6l-7.7 19.8c-0.2 0.6 0.4 1.1 1 0.8l17.6-11.9c0.7-0.4 1.4 0.5 0.8 1L61.4 43.8C61 44.2 61.3 45 62 44.9l21-3.1c0.8-0.1 1 1 0.3 1.3L63 49.4C62.4 49.6 62.4 50.4 63 50.6z" fill="#edcf5d" data-fill-palette-color="accent"></path></svg></g></g></svg></g><defs></defs></svg><rect width="395.52" height="247.2" fill="none" stroke="none" visibility="hidden"></rect></g></svg></g></svg>